<svg width="24" height="27" viewBox="0 0 24 27" fill="none" xmlns="http://www.w3.org/2000/svg">
<path d="M19.875 23.4926C17.8417 23.4926 15.8208 22.936 13.8125 21.8228C11.8042 20.7095 10 19.2624 8.4 17.4812C6.8 15.7001 5.5 13.6917 4.5 11.456C3.5 9.22032 3 6.97071 3 4.70719C3 4.34937 3.10714 4.05119 3.32142 3.81265C3.53571 3.5741 3.80357 3.45483 4.125 3.45483H7.625C7.85185 3.45483 8.0544 3.54296 8.23265 3.71922C8.41088 3.89548 8.525 4.13204 8.575 4.42889L9.25 7.93549C9.28333 8.19524 9.27917 8.4318 9.2375 8.64516C9.19583 8.85853 9.10833 9.03942 8.975 9.18785L6.475 11.9987C7.40833 13.7242 8.45417 15.227 9.6125 16.5072C10.7708 17.7874 12.0833 18.8728 13.55 19.7633L15.925 17.036C16.0917 16.8319 16.2833 16.6881 16.5 16.6046C16.7167 16.5211 16.9333 16.5072 17.15 16.5628L20.125 17.2864C20.3802 17.3491 20.5898 17.4899 20.7539 17.7091C20.918 17.9283 21 18.1863 21 18.4831V22.2402C21 22.598 20.8929 22.8962 20.6786 23.1348C20.4643 23.3733 20.1964 23.4926 19.875 23.4926ZM5.725 10.468L7.75 8.18596L7.175 5.12464H4.5C4.5 5.84823 4.6 6.64139 4.8 7.50413C5 8.36686 5.30833 9.35483 5.725 10.468ZM14.95 20.5704C15.6333 20.9229 16.375 21.2105 17.175 21.4331C17.975 21.6558 18.75 21.7856 19.5 21.8228V18.8449L16.925 18.2605L14.95 20.5704Z" fill="white"/>
</svg>
