<svg width="40" height="46" viewBox="0 0 40 46" fill="none" xmlns="http://www.w3.org/2000/svg">
<path d="M20 4.35425C17.8113 4.35425 15.6441 4.83415 13.622 5.76655C11.5999 6.69894 9.76257 8.06558 8.21493 9.78843C5.08932 13.2679 3.33337 17.987 3.33337 22.9077C3.33337 31.1083 8.11671 38.0659 14.7334 40.5335C15.5667 40.6819 15.8334 40.1068 15.8334 39.6058V36.4703C11.2167 37.5835 10.2334 33.9841 10.2334 33.9841C9.46671 31.8319 8.38337 31.2568 8.38337 31.2568C6.86671 30.1064 8.50004 30.1435 8.50004 30.1435C10.1667 30.2734 11.05 32.0546 11.05 32.0546C12.5 34.8747 14.95 34.0398 15.9 33.5945C16.05 32.3885 16.4834 31.5722 16.95 31.1083C13.25 30.6445 9.36671 29.0489 9.36671 21.98C9.36671 19.9206 10 18.2693 11.0834 16.952C10.9167 16.4882 10.3334 14.5586 11.25 12.0539C11.25 12.0539 12.65 11.553 15.8334 13.9464C17.15 13.5382 18.5834 13.3341 20 13.3341C21.4167 13.3341 22.85 13.5382 24.1667 13.9464C27.35 11.553 28.75 12.0539 28.75 12.0539C29.6667 14.5586 29.0834 16.4882 28.9167 16.952C30 18.2693 30.6334 19.9206 30.6334 21.98C30.6334 29.0674 26.7334 30.6259 23.0167 31.0898C23.6167 31.6649 24.1667 32.7967 24.1667 34.5222V39.6058C24.1667 40.1068 24.4334 40.7005 25.2834 40.5335C31.9 38.0473 36.6667 31.1083 36.6667 22.9077C36.6667 20.4712 36.2356 18.0586 35.398 15.8076C34.5605 13.5566 33.3328 11.5113 31.7852 9.78843C30.2375 8.06558 28.4002 6.69894 26.3781 5.76655C24.356 4.83415 22.1887 4.35425 20 4.35425Z" fill="white"/>
</svg>
