<svg width="40" height="46" viewBox="0 0 40 46" fill="none" xmlns="http://www.w3.org/2000/svg">
<path d="M31.6667 6.20947C32.5507 6.20947 33.3986 6.60042 34.0237 7.29631C34.6488 7.9922 35 8.93603 35 9.92016V35.895C35 36.8791 34.6488 37.823 34.0237 38.5189C33.3986 39.2147 32.5507 39.6057 31.6667 39.6057H8.33333C7.44928 39.6057 6.60143 39.2147 5.97631 38.5189C5.35119 37.823 5 36.8791 5 35.895V9.92016C5 8.93603 5.35119 7.9922 5.97631 7.29631C6.60143 6.60042 7.44928 6.20947 8.33333 6.20947H31.6667ZM30.8333 34.9673V25.134C30.8333 23.5299 30.2609 21.9914 29.2419 20.8571C28.223 19.7228 26.841 19.0856 25.4 19.0856C23.9833 19.0856 22.3333 20.0503 21.5333 21.4975V19.4381H16.8833V34.9673H21.5333V25.8205C21.5333 24.3919 22.5667 23.223 23.85 23.223C24.4688 23.223 25.0623 23.4967 25.4999 23.9838C25.9375 24.4709 26.1833 25.1316 26.1833 25.8205V34.9673H30.8333ZM11.4667 16.5252C12.2093 16.5252 12.9215 16.1968 13.4466 15.6123C13.9717 15.0277 14.2667 14.2349 14.2667 13.4082C14.2667 11.6827 13.0167 10.2727 11.4667 10.2727C10.7196 10.2727 10.0032 10.603 9.47498 11.1911C8.94675 11.7791 8.65 12.5766 8.65 13.4082C8.65 15.1337 9.91667 16.5252 11.4667 16.5252ZM13.7833 34.9673V19.4381H9.16667V34.9673H13.7833Z" fill="white"/>
</svg>
