<svg width="57" height="34" viewBox="0 0 57 34" fill="none" xmlns="http://www.w3.org/2000/svg">
<path d="M11.064 21.28H7.992V34H0.12V0.735999H11.016C15.56 0.735999 18.968 1.568 21.24 3.232C23.544 4.896 24.696 7.44 24.696 10.864C24.696 13.008 24.184 14.8 23.16 16.24C22.136 17.648 20.52 18.848 18.312 19.84L26.76 34H17.88L11.064 21.28ZM7.992 15.856H11.304C13.064 15.856 14.376 15.456 15.24 14.656C16.136 13.856 16.584 12.592 16.584 10.864C16.584 9.264 16.104 8.096 15.144 7.36C14.216 6.624 12.776 6.256 10.824 6.256H7.992V15.856ZM40.689 21.28H37.617V34H29.745V0.735999H40.641C45.185 0.735999 48.593 1.568 50.865 3.232C53.169 4.896 54.321 7.44 54.321 10.864C54.321 13.008 53.809 14.8 52.785 16.24C51.761 17.648 50.145 18.848 47.937 19.84L56.385 34H47.505L40.689 21.28ZM37.617 15.856H40.929C42.689 15.856 44.001 15.456 44.865 14.656C45.761 13.856 46.209 12.592 46.209 10.864C46.209 9.264 45.729 8.096 44.769 7.36C43.841 6.624 42.401 6.256 40.449 6.256H37.617V15.856Z" fill="#000"/>
</svg>
